<svg width="232" height="323" viewBox="0 0 232 323" fill="none" xmlns="http://www.w3.org/2000/svg">
<path d="M42.4995 29.258C41.3514 28.4911 39.7989 28.8002 39.032 29.9483C38.2651 31.0964 38.5742 32.6489 39.7223 33.4158L42.4995 29.258ZM190.91 133.523C192.264 133.253 193.143 131.937 192.873 130.583L188.481 108.516C188.211 107.162 186.895 106.282 185.541 106.552C184.186 106.821 183.307 108.138 183.577 109.492L187.482 129.107L167.866 133.012C166.512 133.281 165.633 134.598 165.903 135.952C166.172 137.306 167.488 138.185 168.843 137.916L190.91 133.523ZM39.7223 33.4158L189.033 133.15L191.81 128.992L42.4995 29.258L39.7223 33.4158Z" fill="#EEF2FF"/>
<path d="M76.5732 225.558C76.2415 226.898 77.0591 228.254 78.3993 228.585L100.24 233.992C101.58 234.323 102.936 233.506 103.268 232.166C103.599 230.825 102.782 229.47 101.442 229.138L82.0274 224.333L86.8329 204.919C87.1647 203.578 86.3471 202.223 85.0068 201.891C83.6666 201.559 82.3111 202.377 81.9794 203.717L76.5732 225.558ZM193.291 160.141C194.474 159.428 194.854 157.891 194.141 156.709C193.428 155.526 191.891 155.146 190.709 155.859L193.291 160.141ZM80.2912 228.299L193.291 160.141L190.709 155.859L77.7088 224.018L80.2912 228.299Z" fill="#EEF2FF"/>
<path d="M155.472 295.985C156.787 295.565 157.513 294.158 157.093 292.843L150.247 271.41C149.827 270.095 148.42 269.369 147.105 269.789C145.79 270.209 145.064 271.616 145.484 272.931L151.569 291.983L132.517 298.068C131.202 298.488 130.476 299.895 130.896 301.21C131.317 302.525 132.723 303.251 134.039 302.831L155.472 295.985ZM77.1461 250.778C75.9191 250.145 74.4112 250.627 73.7782 251.854C73.1452 253.081 73.6268 254.589 74.8539 255.222L77.1461 250.778ZM155.857 291.382L77.1461 250.778L74.8539 255.222L153.565 295.826L155.857 291.382Z" fill="#EEF2FF"/>
<path d="M33 16.62V18C32.9981 21.2346 31.9507 24.382 30.014 26.9727C28.0772 29.5634 25.3549 31.4587 22.253 32.3758C19.1511 33.293 15.8359 33.1828 12.8017 32.0619C9.76751 30.9409 7.17697 28.8691 5.41643 26.1556C3.65588 23.442 2.81967 20.2321 3.0325 17.0045C3.24533 13.7768 4.4958 10.7045 6.5974 8.24559C8.69901 5.78671 11.5392 4.07305 14.6943 3.3602C17.8494 2.64734 21.1504 2.97349 24.105 4.28998" stroke="#3730A3" stroke-width="2" stroke-linecap="round" stroke-linejoin="round"/>
<path d="M33 6L18 21.015L13.5 16.515" stroke="#3730A3" stroke-width="2" stroke-linecap="round" stroke-linejoin="round"/>
<path d="M229 142.62V144C228.998 147.235 227.951 150.382 226.014 152.973C224.077 155.563 221.355 157.459 218.253 158.376C215.151 159.293 211.836 159.183 208.802 158.062C205.768 156.941 203.177 154.869 201.416 152.156C199.656 149.442 198.82 146.232 199.033 143.004C199.245 139.777 200.496 136.704 202.597 134.246C204.699 131.787 207.539 130.073 210.694 129.36C213.849 128.647 217.15 128.973 220.105 130.29" stroke="#3730A3" stroke-width="2" stroke-linecap="round" stroke-linejoin="round"/>
<path d="M229 132L214 147.015L209.5 142.515" stroke="#3730A3" stroke-width="2" stroke-linecap="round" stroke-linejoin="round"/>
<path d="M69 236.62V238C68.9982 241.235 67.9508 244.382 66.014 246.973C64.0773 249.563 61.3549 251.459 58.253 252.376C55.1511 253.293 51.8359 253.183 48.8017 252.062C45.7675 250.941 43.177 248.869 41.4164 246.156C39.6559 243.442 38.8197 240.232 39.0325 237.004C39.2453 233.777 40.4958 230.704 42.5974 228.246C44.699 225.787 47.5392 224.073 50.6943 223.36C53.8494 222.647 57.1504 222.973 60.105 224.29" stroke="#3730A3" stroke-width="2" stroke-linecap="round" stroke-linejoin="round"/>
<path d="M69 226L54 241.015L49.5 236.515" stroke="#3730A3" stroke-width="2" stroke-linecap="round" stroke-linejoin="round"/>
<path d="M193 303.62V305C192.998 308.235 191.951 311.382 190.014 313.973C188.077 316.563 185.355 318.459 182.253 319.376C179.151 320.293 175.836 320.183 172.802 319.062C169.768 317.941 167.177 315.869 165.416 313.156C163.656 310.442 162.82 307.232 163.033 304.004C163.245 300.777 164.496 297.704 166.597 295.246C168.699 292.787 171.539 291.073 174.694 290.36C177.849 289.647 181.15 289.973 184.105 291.29" stroke="#3730A3" stroke-width="2" stroke-linecap="round" stroke-linejoin="round"/>
<path d="M193 293L178 308.015L173.5 303.515" stroke="#3730A3" stroke-width="2" stroke-linecap="round" stroke-linejoin="round"/>
</svg>
