<svg width="136" height="42" viewBox="0 0 136 42" fill="none" xmlns="http://www.w3.org/2000/svg">
<rect width="48.4451" height="42" rx="8" fill="#0A0221"/>
<path d="M34.0406 4.46809C33.9592 7.91934 35.3962 8.45818 38.8852 8.54576C35.2169 8.45113 34.0985 9.32459 34.0406 12.6234C33.7342 9.72967 32.8869 8.54532 29.1961 8.54576C32.7459 8.52734 33.9029 7.72693 34.0406 4.46809Z" fill="#E6E2F0"/>
<path d="M40.3384 10.5846C40.2651 13.6907 41.5584 14.1757 44.6984 14.2545C41.397 14.1693 40.3904 14.9554 40.3384 17.9244C40.0626 15.32 39.3 14.2541 35.9783 14.2545C39.1731 14.2379 40.2144 13.5176 40.3384 10.5846Z" fill="#E6E2F0"/>
<path d="M6.57431 27.3385C6.57431 27.1464 6.6329 26.982 6.75009 26.8453C6.86728 26.7086 7.04469 26.6402 7.28232 26.6402C7.51669 26.6402 7.6941 26.7086 7.81454 26.8453C7.93824 26.9788 8.00009 27.1432 8.00009 27.3385C8.00009 27.5305 7.93824 27.6917 7.81454 27.8219C7.69085 27.9521 7.51344 28.0172 7.28232 28.0172C7.04794 28.0172 6.87053 27.9521 6.75009 27.8219C6.6329 27.6884 6.57431 27.5273 6.57431 27.3385ZM13.2589 27.2896C13.4216 27.2896 13.5795 27.2636 13.7325 27.2115C13.8888 27.1594 14.0271 27.0862 14.1476 26.9918C14.268 26.9006 14.364 26.7932 14.4356 26.6695C14.5105 26.5426 14.5496 26.4058 14.5528 26.2594H15.4073C15.4041 26.4937 15.3422 26.7183 15.2218 26.9332C15.1046 27.1448 14.9467 27.3303 14.7481 27.4898C14.5496 27.6526 14.3217 27.7828 14.0645 27.8805C13.8074 27.9749 13.5388 28.0221 13.2589 28.0221C12.8585 28.0221 12.5086 27.9504 12.2091 27.8072C11.9096 27.664 11.6606 27.4703 11.462 27.2262C11.2602 26.9853 11.1088 26.707 11.0079 26.3912C10.907 26.0722 10.8565 25.7369 10.8565 25.3853V25.1803C10.8565 24.832 10.907 24.4983 11.0079 24.1793C11.1088 23.8603 11.2602 23.5787 11.462 23.3346C11.6606 23.0937 11.9096 22.9016 12.2091 22.7584C12.5086 22.6152 12.8585 22.5435 13.2589 22.5435C13.5714 22.5435 13.8578 22.594 14.1183 22.6949C14.3819 22.7926 14.6098 22.926 14.8018 23.0953C14.9907 23.2678 15.1388 23.4713 15.2462 23.7057C15.3536 23.94 15.4073 24.1907 15.4073 24.4576H14.5528C14.5496 24.2981 14.5138 24.1484 14.4454 24.0084C14.3803 23.8652 14.2908 23.7398 14.1768 23.6324C14.0629 23.525 13.9262 23.4404 13.7667 23.3785C13.6104 23.3167 13.4412 23.2857 13.2589 23.2857C12.9789 23.2857 12.7429 23.3427 12.5509 23.4566C12.3621 23.5673 12.2091 23.7122 12.0919 23.8912C11.9747 24.0735 11.8901 24.2769 11.838 24.5015C11.7892 24.7262 11.7647 24.9524 11.7647 25.1803V25.3853C11.7647 25.6165 11.7892 25.8459 11.838 26.0738C11.8901 26.2984 11.9747 26.5002 12.0919 26.6793C12.2058 26.8616 12.3572 27.0097 12.546 27.1236C12.738 27.2343 12.9757 27.2896 13.2589 27.2896ZM20.5245 26.523C20.5245 26.4156 20.5033 26.3196 20.461 26.2349C20.4187 26.1471 20.3471 26.0673 20.2462 25.9957C20.1453 25.9241 20.0118 25.859 19.8458 25.8004C19.6798 25.7385 19.4731 25.6832 19.2257 25.6344C18.9229 25.5725 18.6463 25.4976 18.3956 25.4098C18.1482 25.3219 17.9366 25.2161 17.7608 25.0924C17.5818 24.9719 17.4435 24.8303 17.3458 24.6676C17.2481 24.5015 17.1993 24.3095 17.1993 24.0914C17.1993 23.8765 17.2498 23.6764 17.3507 23.4908C17.4516 23.302 17.5932 23.1376 17.7755 22.9976C17.9578 22.8577 18.1742 22.747 18.4249 22.6656C18.6788 22.5842 18.9571 22.5435 19.2599 22.5435C19.5854 22.5435 19.8783 22.5859 20.1388 22.6705C20.3992 22.7551 20.6205 22.8723 20.8028 23.0221C20.9851 23.1718 21.1251 23.3476 21.2227 23.5494C21.3237 23.748 21.3741 23.9628 21.3741 24.1939H20.4708C20.4708 24.08 20.4415 23.9693 20.3829 23.8619C20.3243 23.7512 20.2429 23.6536 20.1388 23.5689C20.0346 23.4843 19.9076 23.4159 19.7579 23.3639C19.6114 23.3118 19.4454 23.2857 19.2599 23.2857C19.0678 23.2857 18.8985 23.3069 18.752 23.3492C18.6088 23.3915 18.49 23.4485 18.3956 23.5201C18.2979 23.5917 18.2247 23.6747 18.1759 23.7691C18.127 23.8635 18.1026 23.9612 18.1026 24.0621C18.1026 24.1663 18.1222 24.259 18.1612 24.3404C18.2003 24.4218 18.2686 24.495 18.3663 24.5601C18.4607 24.6252 18.5877 24.6838 18.7472 24.7359C18.9099 24.788 19.115 24.8385 19.3624 24.8873C19.6879 24.9557 19.9793 25.0354 20.2364 25.1265C20.4936 25.2144 20.7101 25.3202 20.8858 25.4439C21.0616 25.5709 21.1951 25.7174 21.2862 25.8834C21.3806 26.0494 21.4278 26.2415 21.4278 26.4596C21.4278 26.6939 21.3741 26.9071 21.2667 27.0992C21.1625 27.2913 21.016 27.4557 20.8272 27.5924C20.6384 27.7291 20.4122 27.8349 20.1485 27.9098C19.8849 27.9846 19.5968 28.0221 19.2843 28.0221C18.9262 28.0221 18.6072 27.9749 18.3272 27.8805C18.0473 27.7828 17.8113 27.6542 17.6192 27.4947C17.4239 27.3385 17.2742 27.1562 17.17 26.9478C17.0691 26.7395 17.0186 26.523 17.0186 26.2984H17.922C17.935 26.484 17.9838 26.6402 18.0685 26.7672C18.1563 26.8941 18.2654 26.9967 18.3956 27.0748C18.5226 27.1529 18.6642 27.2083 18.8204 27.2408C18.9767 27.2734 19.1313 27.2896 19.2843 27.2896C19.5252 27.2896 19.7351 27.262 19.9142 27.2066C20.0932 27.148 20.2332 27.0683 20.3341 26.9674C20.3959 26.9055 20.4431 26.8372 20.4757 26.7623C20.5082 26.6874 20.5245 26.6077 20.5245 26.523ZM26.5304 26.523C26.5304 26.4156 26.5092 26.3196 26.4669 26.2349C26.4246 26.1471 26.353 26.0673 26.252 25.9957C26.1511 25.9241 26.0177 25.859 25.8517 25.8004C25.6856 25.7385 25.4789 25.6832 25.2315 25.6344C24.9288 25.5725 24.6521 25.4976 24.4015 25.4098C24.1541 25.3219 23.9425 25.2161 23.7667 25.0924C23.5877 24.9719 23.4493 24.8303 23.3517 24.6676C23.254 24.5015 23.2052 24.3095 23.2052 24.0914C23.2052 23.8765 23.2556 23.6764 23.3565 23.4908C23.4574 23.302 23.599 23.1376 23.7813 22.9976C23.9636 22.8577 24.1801 22.747 24.4308 22.6656C24.6847 22.5842 24.963 22.5435 25.2657 22.5435C25.5912 22.5435 25.8842 22.5859 26.1446 22.6705C26.405 22.7551 26.6264 22.8723 26.8087 23.0221C26.991 23.1718 27.131 23.3476 27.2286 23.5494C27.3295 23.748 27.38 23.9628 27.38 24.1939H26.4767C26.4767 24.08 26.4474 23.9693 26.3888 23.8619C26.3302 23.7512 26.2488 23.6536 26.1446 23.5689C26.0405 23.4843 25.9135 23.4159 25.7638 23.3639C25.6173 23.3118 25.4513 23.2857 25.2657 23.2857C25.0737 23.2857 24.9044 23.3069 24.7579 23.3492C24.6147 23.3915 24.4959 23.4485 24.4015 23.5201C24.3038 23.5917 24.2306 23.6747 24.1817 23.7691C24.1329 23.8635 24.1085 23.9612 24.1085 24.0621C24.1085 24.1663 24.128 24.259 24.1671 24.3404C24.2061 24.4218 24.2745 24.495 24.3722 24.5601C24.4666 24.6252 24.5935 24.6838 24.753 24.7359C24.9158 24.788 25.1209 24.8385 25.3683 24.8873C25.6938 24.9557 25.9851 25.0354 26.2423 25.1265C26.4994 25.2144 26.7159 25.3202 26.8917 25.4439C27.0675 25.5709 27.2009 25.7174 27.2921 25.8834C27.3865 26.0494 27.4337 26.2415 27.4337 26.4596C27.4337 26.6939 27.38 26.9071 27.2726 27.0992C27.1684 27.2913 27.0219 27.4557 26.8331 27.5924C26.6443 27.7291 26.4181 27.8349 26.1544 27.9098C25.8907 27.9846 25.6026 28.0221 25.2901 28.0221C24.9321 28.0221 24.613 27.9749 24.3331 27.8805C24.0532 27.7828 23.8171 27.6542 23.6251 27.4947C23.4298 27.3385 23.28 27.1562 23.1759 26.9478C23.075 26.7395 23.0245 26.523 23.0245 26.2984H23.9278C23.9408 26.484 23.9897 26.6402 24.0743 26.7672C24.1622 26.8941 24.2713 26.9967 24.4015 27.0748C24.5284 27.1529 24.67 27.2083 24.8263 27.2408C24.9825 27.2734 25.1371 27.2896 25.2901 27.2896C25.531 27.2896 25.741 27.262 25.92 27.2066C26.099 27.148 26.239 27.0683 26.3399 26.9674C26.4018 26.9055 26.449 26.8372 26.4815 26.7623C26.5141 26.6874 26.5304 26.6077 26.5304 26.523ZM32.9513 29.7115C32.6355 29.7017 32.3621 29.6285 32.131 29.4918C31.8998 29.3551 31.7078 29.1744 31.5548 28.9498C31.4083 28.7349 31.2976 28.4941 31.2227 28.2271C31.1479 27.9635 31.1104 27.7014 31.1104 27.441V26.6158C31.1104 26.1471 30.9981 25.8069 30.7735 25.5953C30.5522 25.3837 30.212 25.2763 29.753 25.273V24.565C30.212 24.565 30.5522 24.4609 30.7735 24.2525C30.9981 24.0409 31.1104 23.6991 31.1104 23.2271V22.3971C31.1104 22.1334 31.1446 21.8648 31.213 21.5914C31.2846 21.3147 31.3969 21.0673 31.5499 20.8492C31.6931 20.6409 31.8803 20.4716 32.1114 20.3414C32.3425 20.2079 32.6225 20.1363 32.9513 20.1265L33.0538 20.6881C32.8194 20.6946 32.6323 20.7499 32.4923 20.8541C32.3556 20.9583 32.253 21.0901 32.1847 21.2496C32.113 21.4124 32.0675 21.5946 32.0479 21.7965C32.0284 21.9983 32.0186 22.1985 32.0186 22.3971V23.2271C32.0186 23.6178 31.9275 23.9612 31.7452 24.2574C31.5662 24.5504 31.2879 24.7734 30.9102 24.9264C31.2879 25.0761 31.5662 25.2991 31.7452 25.5953C31.9242 25.8883 32.0154 26.2284 32.0186 26.6158V27.441C32.0186 27.6428 32.0349 27.843 32.0675 28.0416C32.1 28.2434 32.157 28.4241 32.2384 28.5836C32.3165 28.7463 32.4207 28.8798 32.5509 28.984C32.6843 29.0881 32.852 29.1435 33.0538 29.15L32.9513 29.7115ZM35.7589 29.15C35.9574 29.1435 36.1235 29.0881 36.2569 28.984C36.3904 28.8798 36.4978 28.7463 36.5792 28.5836C36.6573 28.4241 36.7127 28.2434 36.7452 28.0416C36.781 27.843 36.7989 27.6428 36.7989 27.441V26.6158C36.7989 26.3586 36.8364 26.121 36.9112 25.9029C36.9893 25.6848 37.1082 25.496 37.2677 25.3365C37.3523 25.2519 37.4467 25.1754 37.5509 25.107C37.6583 25.0387 37.7755 24.9784 37.9024 24.9264C37.7722 24.8743 37.6518 24.8124 37.5411 24.7408C37.4337 24.6692 37.3393 24.5894 37.2579 24.5015C37.1017 24.3388 36.9861 24.15 36.9112 23.9351C36.8364 23.717 36.7989 23.481 36.7989 23.2271V22.3971C36.7989 22.1985 36.7875 21.9983 36.7647 21.7965C36.7452 21.5946 36.7013 21.4124 36.6329 21.2496C36.5613 21.0901 36.4571 20.9583 36.3204 20.8541C36.1837 20.7499 35.9981 20.6946 35.7638 20.6881L35.8614 20.1265C36.1772 20.1363 36.4474 20.203 36.672 20.3267C36.8998 20.4504 37.087 20.6116 37.2335 20.8101C37.3995 21.0348 37.5183 21.287 37.5899 21.567C37.6648 21.8469 37.7022 22.1236 37.7022 22.3971V23.2271C37.7022 23.4224 37.7201 23.595 37.756 23.7447C37.795 23.8912 37.852 24.0182 37.9268 24.1256C38.0343 24.2786 38.1824 24.3909 38.3712 24.4625C38.5632 24.5308 38.7927 24.565 39.0597 24.565V25.273C38.8253 25.2763 38.6202 25.3056 38.4444 25.3609C38.2719 25.413 38.1303 25.496 38.0196 25.6099C37.9122 25.7206 37.8324 25.859 37.7804 26.025C37.7283 26.191 37.7022 26.3879 37.7022 26.6158V27.441C37.7022 27.7014 37.6664 27.9635 37.5948 28.2271C37.5232 28.4941 37.4125 28.7366 37.2628 28.9547C37.1098 29.1728 36.9177 29.3518 36.6866 29.4918C36.4555 29.6318 36.1804 29.705 35.8614 29.7115L35.7589 29.15Z" fill="#E6E2F0"/>
<path d="M66.7727 25H65.3636C65.2803 24.5947 65.1345 24.2386 64.9261 23.9318C64.7216 23.625 64.4716 23.3674 64.1761 23.1591C63.8845 22.947 63.5606 22.7879 63.2045 22.6818C62.8485 22.5758 62.4773 22.5227 62.0909 22.5227C61.3864 22.5227 60.7481 22.7008 60.1761 23.0568C59.608 23.4129 59.1553 23.9375 58.8182 24.6307C58.4848 25.3239 58.3182 26.1742 58.3182 27.1818C58.3182 28.1894 58.4848 29.0398 58.8182 29.733C59.1553 30.4261 59.608 30.9508 60.1761 31.3068C60.7481 31.6629 61.3864 31.8409 62.0909 31.8409C62.4773 31.8409 62.8485 31.7879 63.2045 31.6818C63.5606 31.5758 63.8845 31.4186 64.1761 31.2102C64.4716 30.9981 64.7216 30.7386 64.9261 30.4318C65.1345 30.1212 65.2803 29.7652 65.3636 29.3636H66.7727C66.6667 29.9583 66.4735 30.4905 66.1932 30.9602C65.9129 31.4299 65.5644 31.8295 65.1477 32.1591C64.7311 32.4848 64.2633 32.733 63.7443 32.9034C63.2292 33.0739 62.678 33.1591 62.0909 33.1591C61.0985 33.1591 60.2159 32.9167 59.4432 32.4318C58.6705 31.947 58.0625 31.2576 57.6193 30.3636C57.1761 29.4697 56.9545 28.4091 56.9545 27.1818C56.9545 25.9545 57.1761 24.8939 57.6193 24C58.0625 23.1061 58.6705 22.4167 59.4432 21.9318C60.2159 21.447 61.0985 21.2045 62.0909 21.2045C62.678 21.2045 63.2292 21.2898 63.7443 21.4602C64.2633 21.6307 64.7311 21.8807 65.1477 22.2102C65.5644 22.536 65.9129 22.9337 66.1932 23.4034C66.4735 23.8693 66.6667 24.4015 66.7727 25ZM70.2088 21.3636V33H68.8679V21.3636H70.2088ZM76.3239 33.1818C75.483 33.1818 74.7576 32.9962 74.1477 32.625C73.5417 32.25 73.0739 31.7273 72.7443 31.0568C72.4186 30.3826 72.2557 29.5985 72.2557 28.7045C72.2557 27.8106 72.4186 27.0227 72.7443 26.3409C73.0739 25.6553 73.5322 25.1212 74.1193 24.7386C74.7102 24.3523 75.3996 24.1591 76.1875 24.1591C76.642 24.1591 77.0909 24.2348 77.5341 24.3864C77.9773 24.5379 78.3807 24.7841 78.7443 25.125C79.108 25.4621 79.3977 25.9091 79.6136 26.4659C79.8295 27.0227 79.9375 27.7083 79.9375 28.5227V29.0909H73.2102V27.9318H78.5739C78.5739 27.4394 78.4754 27 78.2784 26.6136C78.0852 26.2273 77.8087 25.9223 77.4489 25.6989C77.0928 25.4754 76.6723 25.3636 76.1875 25.3636C75.6534 25.3636 75.1913 25.4962 74.8011 25.7614C74.4148 26.0227 74.1174 26.3636 73.9091 26.7841C73.7008 27.2045 73.5966 27.6553 73.5966 28.1364V28.9091C73.5966 29.5682 73.7102 30.1269 73.9375 30.5852C74.1686 31.0398 74.4886 31.3864 74.8977 31.625C75.3068 31.8598 75.7822 31.9773 76.3239 31.9773C76.6761 31.9773 76.9943 31.928 77.2784 31.8295C77.5663 31.7273 77.8144 31.5758 78.0227 31.375C78.2311 31.1705 78.392 30.9167 78.5057 30.6136L79.8011 30.9773C79.6648 31.4167 79.4356 31.803 79.1136 32.1364C78.7917 32.4659 78.3939 32.7235 77.9205 32.9091C77.447 33.0909 76.9148 33.1818 76.3239 33.1818ZM84.5455 33.2045C83.9924 33.2045 83.4905 33.1004 83.0398 32.892C82.589 32.6799 82.2311 32.375 81.9659 31.9773C81.7008 31.5758 81.5682 31.0909 81.5682 30.5227C81.5682 30.0227 81.6667 29.6174 81.8636 29.3068C82.0606 28.9924 82.3239 28.7462 82.6534 28.5682C82.983 28.3902 83.3466 28.2576 83.7443 28.1705C84.1458 28.0795 84.5492 28.0076 84.9545 27.9545C85.4848 27.8864 85.9148 27.8352 86.2443 27.8011C86.5777 27.7633 86.8201 27.7008 86.9716 27.6136C87.1269 27.5265 87.2045 27.375 87.2045 27.1591V27.1136C87.2045 26.553 87.0511 26.1174 86.7443 25.8068C86.4413 25.4962 85.9811 25.3409 85.3636 25.3409C84.7235 25.3409 84.2216 25.4811 83.858 25.7614C83.4943 26.0417 83.2386 26.3409 83.0909 26.6591L81.8182 26.2045C82.0455 25.6742 82.3485 25.2614 82.7273 24.9659C83.1098 24.6667 83.5265 24.4583 83.9773 24.3409C84.4318 24.2197 84.8788 24.1591 85.3182 24.1591C85.5985 24.1591 85.9205 24.1932 86.2841 24.2614C86.6515 24.3258 87.0057 24.4602 87.3466 24.6648C87.6913 24.8693 87.9773 25.178 88.2045 25.5909C88.4318 26.0038 88.5455 26.5568 88.5455 27.25V33H87.2045V31.8182H87.1364C87.0455 32.0076 86.8939 32.2102 86.6818 32.4261C86.4697 32.642 86.1875 32.8258 85.8352 32.9773C85.483 33.1288 85.053 33.2045 84.5455 33.2045ZM84.75 32C85.2803 32 85.7273 31.8958 86.0909 31.6875C86.4583 31.4792 86.7348 31.2102 86.9205 30.8807C87.1098 30.5511 87.2045 30.2045 87.2045 29.8409V28.6136C87.1477 28.6818 87.0227 28.7443 86.8295 28.8011C86.6402 28.8542 86.4205 28.9015 86.1705 28.9432C85.9242 28.9811 85.6837 29.0152 85.4489 29.0455C85.2178 29.072 85.0303 29.0947 84.8864 29.1136C84.5379 29.1591 84.2121 29.233 83.9091 29.3352C83.6098 29.4337 83.3674 29.5833 83.1818 29.7841C83 29.9811 82.9091 30.25 82.9091 30.5909C82.9091 31.0568 83.0814 31.4091 83.4261 31.6477C83.7746 31.8826 84.2159 32 84.75 32ZM92.3338 27.75V33H90.9929V24.2727H92.2884V25.6364H92.402C92.6065 25.1932 92.9171 24.8371 93.3338 24.5682C93.7505 24.2955 94.2884 24.1591 94.9474 24.1591C95.5384 24.1591 96.0554 24.2803 96.4986 24.5227C96.9418 24.7614 97.2865 25.125 97.5327 25.6136C97.7789 26.0985 97.902 26.7121 97.902 27.4545V33H96.5611V27.5455C96.5611 26.8598 96.383 26.3258 96.027 25.9432C95.6709 25.5568 95.1823 25.3636 94.5611 25.3636C94.133 25.3636 93.7505 25.4564 93.4134 25.642C93.08 25.8277 92.8168 26.0985 92.6236 26.4545C92.4304 26.8106 92.3338 27.2424 92.3338 27.75ZM114.398 25H112.989C112.905 24.5947 112.759 24.2386 112.551 23.9318C112.347 23.625 112.097 23.3674 111.801 23.1591C111.509 22.947 111.186 22.7879 110.83 22.6818C110.473 22.5758 110.102 22.5227 109.716 22.5227C109.011 22.5227 108.373 22.7008 107.801 23.0568C107.233 23.4129 106.78 23.9375 106.443 24.6307C106.11 25.3239 105.943 26.1742 105.943 27.1818C105.943 28.1894 106.11 29.0398 106.443 29.733C106.78 30.4261 107.233 30.9508 107.801 31.3068C108.373 31.6629 109.011 31.8409 109.716 31.8409C110.102 31.8409 110.473 31.7879 110.83 31.6818C111.186 31.5758 111.509 31.4186 111.801 31.2102C112.097 30.9981 112.347 30.7386 112.551 30.4318C112.759 30.1212 112.905 29.7652 112.989 29.3636H114.398C114.292 29.9583 114.098 30.4905 113.818 30.9602C113.538 31.4299 113.189 31.8295 112.773 32.1591C112.356 32.4848 111.888 32.733 111.369 32.9034C110.854 33.0739 110.303 33.1591 109.716 33.1591C108.723 33.1591 107.841 32.9167 107.068 32.4318C106.295 31.947 105.688 31.2576 105.244 30.3636C104.801 29.4697 104.58 28.4091 104.58 27.1818C104.58 25.9545 104.801 24.8939 105.244 24C105.688 23.1061 106.295 22.4167 107.068 21.9318C107.841 21.447 108.723 21.2045 109.716 21.2045C110.303 21.2045 110.854 21.2898 111.369 21.4602C111.888 21.6307 112.356 21.8807 112.773 22.2102C113.189 22.536 113.538 22.9337 113.818 23.4034C114.098 23.8693 114.292 24.4015 114.398 25ZM123.038 24.2727C122.97 23.697 122.694 23.25 122.209 22.9318C121.724 22.6136 121.129 22.4545 120.425 22.4545C119.91 22.4545 119.459 22.5379 119.072 22.7045C118.69 22.8712 118.391 23.1004 118.175 23.392C117.963 23.6837 117.857 24.0152 117.857 24.3864C117.857 24.697 117.93 24.964 118.078 25.1875C118.23 25.4072 118.423 25.5909 118.658 25.7386C118.893 25.8826 119.139 26.0019 119.396 26.0966C119.654 26.1875 119.891 26.2614 120.107 26.3182L121.288 26.6364C121.591 26.7159 121.929 26.8258 122.3 26.9659C122.675 27.1061 123.033 27.2973 123.374 27.5398C123.718 27.7784 124.002 28.0852 124.226 28.4602C124.449 28.8352 124.561 29.2955 124.561 29.8409C124.561 30.4697 124.396 31.0379 124.067 31.5455C123.741 32.053 123.264 32.4564 122.635 32.7557C122.01 33.0549 121.25 33.2045 120.357 33.2045C119.523 33.2045 118.802 33.0701 118.192 32.8011C117.586 32.5322 117.108 32.1572 116.76 31.6761C116.415 31.1951 116.22 30.6364 116.175 30H117.629C117.667 30.4394 117.815 30.803 118.072 31.0909C118.334 31.375 118.663 31.5871 119.061 31.7273C119.463 31.8636 119.894 31.9318 120.357 31.9318C120.894 31.9318 121.377 31.8447 121.805 31.6705C122.233 31.4924 122.572 31.2462 122.822 30.9318C123.072 30.6136 123.197 30.2424 123.197 29.8182C123.197 29.4318 123.089 29.1174 122.874 28.875C122.658 28.6326 122.374 28.4356 122.021 28.2841C121.669 28.1326 121.288 28 120.879 27.8864L119.447 27.4773C118.538 27.2159 117.819 26.8428 117.288 26.358C116.758 25.8731 116.493 25.2386 116.493 24.4545C116.493 23.803 116.669 23.2348 117.021 22.75C117.377 22.2614 117.855 21.8826 118.453 21.6136C119.055 21.3409 119.728 21.2045 120.47 21.2045C121.22 21.2045 121.887 21.339 122.47 21.608C123.054 21.8731 123.516 22.2367 123.857 22.6989C124.201 23.161 124.383 23.6856 124.402 24.2727H123.038ZM133.241 24.2727C133.173 23.697 132.897 23.25 132.412 22.9318C131.927 22.6136 131.332 22.4545 130.628 22.4545C130.113 22.4545 129.662 22.5379 129.276 22.7045C128.893 22.8712 128.594 23.1004 128.378 23.392C128.166 23.6837 128.06 24.0152 128.06 24.3864C128.06 24.697 128.134 24.964 128.281 25.1875C128.433 25.4072 128.626 25.5909 128.861 25.7386C129.096 25.8826 129.342 26.0019 129.599 26.0966C129.857 26.1875 130.094 26.2614 130.31 26.3182L131.491 26.6364C131.795 26.7159 132.132 26.8258 132.503 26.9659C132.878 27.1061 133.236 27.2973 133.577 27.5398C133.921 27.7784 134.205 28.0852 134.429 28.4602C134.652 28.8352 134.764 29.2955 134.764 29.8409C134.764 30.4697 134.599 31.0379 134.27 31.5455C133.944 32.053 133.467 32.4564 132.838 32.7557C132.213 33.0549 131.454 33.2045 130.56 33.2045C129.726 33.2045 129.005 33.0701 128.395 32.8011C127.789 32.5322 127.312 32.1572 126.963 31.6761C126.618 31.1951 126.423 30.6364 126.378 30H127.832C127.87 30.4394 128.018 30.803 128.276 31.0909C128.537 31.375 128.866 31.5871 129.264 31.7273C129.666 31.8636 130.098 31.9318 130.56 31.9318C131.098 31.9318 131.58 31.8447 132.009 31.6705C132.437 31.4924 132.776 31.2462 133.026 30.9318C133.276 30.6136 133.401 30.2424 133.401 29.8182C133.401 29.4318 133.293 29.1174 133.077 28.875C132.861 28.6326 132.577 28.4356 132.224 28.2841C131.872 28.1326 131.491 28 131.082 27.8864L129.651 27.4773C128.741 27.2159 128.022 26.8428 127.491 26.358C126.961 25.8731 126.696 25.2386 126.696 24.4545C126.696 23.803 126.872 23.2348 127.224 22.75C127.58 22.2614 128.058 21.8826 128.656 21.6136C129.259 21.3409 129.931 21.2045 130.673 21.2045C131.423 21.2045 132.09 21.339 132.673 21.608C133.257 21.8731 133.719 22.2367 134.06 22.6989C134.404 23.161 134.586 23.6856 134.605 24.2727H133.241Z" fill="black"/>
</svg>
